<svg width="1200" height="800" viewBox="0 0 1200 800" fill="none" xmlns="http://www.w3.org/2000/svg">
  <rect width="1200" height="800" rx="28" fill="#06070A"/>
  <circle cx="600" cy="400" r="250" stroke="#1E2430" stroke-width="2"/>
  <circle cx="600" cy="400" r="170" stroke="#1E2430" stroke-width="1.5" stroke-dasharray="8 10"/>

  <path d="M600 150C760 150 890 280 890 440" stroke="#2F6BFF" stroke-opacity="0.45" stroke-width="3"/>
  <path d="M890 440C850 590 720 680 560 680" stroke="#2F6BFF" stroke-opacity="0.35" stroke-width="3"/>
  <path d="M560 680C390 670 260 560 240 390" stroke="#2F6BFF" stroke-opacity="0.25" stroke-width="3"/>
  <path d="M240 390C260 240 390 150 600 150" stroke="#2F6BFF" stroke-opacity="0.3" stroke-width="3"/>

  <g>
    <circle cx="600" cy="150" r="68" fill="#0B0D12" stroke="#2F6BFF" stroke-width="2"/>
    <text x="600" y="142" fill="#F5F7FF" font-family="Inter, Arial, sans-serif" font-size="20" font-weight="700" text-anchor="middle">Acquisition</text>
    <text x="600" y="168" fill="#B2BDD3" font-family="Inter, Arial, sans-serif" font-size="14" text-anchor="middle">Lead friction</text>
  </g>

  <g>
    <circle cx="890" cy="440" r="68" fill="#0B0D12" stroke="#2F6BFF" stroke-width="2"/>
    <text x="890" y="432" fill="#F5F7FF" font-family="Inter, Arial, sans-serif" font-size="20" font-weight="700" text-anchor="middle">Response</text>
    <text x="890" y="458" fill="#B2BDD3" font-family="Inter, Arial, sans-serif" font-size="14" text-anchor="middle">Speed friction</text>
  </g>

  <g>
    <circle cx="560" cy="680" r="68" fill="#0B0D12" stroke="#2F6BFF" stroke-width="2"/>
    <text x="560" y="672" fill="#F5F7FF" font-family="Inter, Arial, sans-serif" font-size="20" font-weight="700" text-anchor="middle">Conversion</text>
    <text x="560" y="698" fill="#B2BDD3" font-family="Inter, Arial, sans-serif" font-size="14" text-anchor="middle">Close friction</text>
  </g>

  <g>
    <circle cx="240" cy="390" r="68" fill="#0B0D12" stroke="#2F6BFF" stroke-width="2"/>
    <text x="240" y="382" fill="#F5F7FF" font-family="Inter, Arial, sans-serif" font-size="20" font-weight="700" text-anchor="middle">Retention</text>
    <text x="240" y="408" fill="#B2BDD3" font-family="Inter, Arial, sans-serif" font-size="14" text-anchor="middle">Follow-up friction</text>
  </g>

  <g>
    <circle cx="600" cy="400" r="94" fill="#11131A" stroke="#2F6BFF" stroke-width="2"/>
    <text x="600" y="394" fill="#F5F7FF" font-family="Inter, Arial, sans-serif" font-size="24" font-weight="800" text-anchor="middle">ELLIS</text>
    <text x="600" y="426" fill="#B2BDD3" font-family="Inter, Arial, sans-serif" font-size="18" font-weight="600" text-anchor="middle">FRICTION FRAMEWORK</text>
  </g>
</svg>
