<svg width="1200" height="760" viewBox="0 0 1200 760" fill="none" xmlns="http://www.w3.org/2000/svg">
  <rect width="1200" height="760" rx="26" fill="#0B0D12"/>
  <rect x="40" y="40" width="1120" height="680" rx="22" fill="#06070A" stroke="#1E2430"/>
  <text x="72" y="96" fill="#F5F7FF" font-family="Inter, Arial, sans-serif" font-size="30" font-weight="800">Friction Score Snapshot</text>
  <text x="72" y="130" fill="#B2BDD3" font-family="Inter, Arial, sans-serif" font-size="16">Illustrative executive view of system friction and recovery focus.</text>

  <g>
    <rect x="72" y="170" width="1056" height="120" rx="16" fill="#11131A" stroke="#1E2430"/>
    <text x="96" y="214" fill="#F5F7FF" font-family="Inter, Arial, sans-serif" font-size="22" font-weight="700">Acquisition Friction</text>
    <text x="96" y="247" fill="#B2BDD3" font-family="Inter, Arial, sans-serif" font-size="16">Lead flow quality + visibility</text>
    <rect x="750" y="204" width="320" height="18" rx="9" fill="#1E2430"/>
    <rect x="750" y="204" width="112" height="18" rx="9" fill="#22C55E"/>
    <text x="1080" y="219" fill="#D8FBE2" font-family="Inter, Arial, sans-serif" font-size="12" text-anchor="end">LOW</text>
  </g>

  <g>
    <rect x="72" y="308" width="1056" height="120" rx="16" fill="#11131A" stroke="#1E2430"/>
    <text x="96" y="352" fill="#F5F7FF" font-family="Inter, Arial, sans-serif" font-size="22" font-weight="700">Response Friction</text>
    <text x="96" y="385" fill="#B2BDD3" font-family="Inter, Arial, sans-serif" font-size="16">Speed-to-lead and first-touch reliability</text>
    <rect x="750" y="342" width="320" height="18" rx="9" fill="#1E2430"/>
    <rect x="750" y="342" width="206" height="18" rx="9" fill="#F59E0B"/>
    <text x="1080" y="357" fill="#FDE8C1" font-family="Inter, Arial, sans-serif" font-size="12" text-anchor="end">MEDIUM</text>
  </g>

  <g>
    <rect x="72" y="446" width="1056" height="120" rx="16" fill="#11131A" stroke="#1E2430"/>
    <text x="96" y="490" fill="#F5F7FF" font-family="Inter, Arial, sans-serif" font-size="22" font-weight="700">Conversion Friction</text>
    <text x="96" y="523" fill="#B2BDD3" font-family="Inter, Arial, sans-serif" font-size="16">Booking drop-off and close-rate leakage</text>
    <rect x="750" y="480" width="320" height="18" rx="9" fill="#1E2430"/>
    <rect x="750" y="480" width="264" height="18" rx="9" fill="#EF4444"/>
    <text x="1080" y="495" fill="#FFD6D6" font-family="Inter, Arial, sans-serif" font-size="12" text-anchor="end">HIGH</text>
  </g>

  <g>
    <rect x="72" y="584" width="1056" height="104" rx="16" fill="#0D1322" stroke="#2F6BFF" stroke-opacity="0.45"/>
    <text x="96" y="628" fill="#F5F7FF" font-family="Inter, Arial, sans-serif" font-size="20" font-weight="700">Retention Friction</text>
    <text x="96" y="656" fill="#BFD0FF" font-family="Inter, Arial, sans-serif" font-size="15">Automation + follow-up continuity is partial; recommend care plan attachment.</text>
    <text x="1080" y="628" fill="#F5F7FF" font-family="Inter, Arial, sans-serif" font-size="30" font-weight="800" text-anchor="end">57%</text>
    <text x="1080" y="654" fill="#BFD0FF" font-family="Inter, Arial, sans-serif" font-size="14" text-anchor="end">Coverage</text>
  </g>
</svg>
